<?xml version="1.0" standalone="no"?>
<!DOCTYPE svg PUBLIC "-//W3C//DTD SVG 20010904//EN"
 "http://www.w3.org/TR/2001/REC-SVG-20010904/DTD/svg10.dtd">
<svg version="1.0" xmlns="http://www.w3.org/2000/svg"
 width="2048.000000pt" height="2048.000000pt" viewBox="0 0 2048.000000 2048.000000"
 preserveAspectRatio="xMidYMid meet">

<g transform="translate(0.000000,2048.000000) scale(0.100000,-0.100000)"
fill="#000000" stroke="none">
<path d="M0 10240 l0 -10240 10240 0 10240 0 0 10240 0 10240 -10240 0 -10240
0 0 -10240z m12815 1695 c120 -27 181 -56 262 -123 65 -54 107 -122 124 -201
28 -132 -51 -315 -231 -536 -73 -90 -116 -154 -141 -210 -24 -54 -39 -56 -101
-15 -87 58 -177 173 -192 246 -6 29 -4 32 44 58 83 45 217 163 280 247 117
156 131 276 40 352 -59 50 -202 73 -360 57 -465 -48 -928 -285 -1054 -541 -67
-138 -58 -251 30 -349 80 -88 133 -119 584 -338 303 -148 449 -239 560 -352
85 -86 130 -156 168 -262 23 -65 26 -88 27 -203 0 -109 -4 -142 -24 -205 -142
-455 -599 -785 -1176 -850 -398 -44 -785 66 -975 277 -91 102 -159 274 -160
403 l0 55 -37 -45 c-152 -187 -311 -262 -454 -215 -42 14 -70 34 -125 89 -85
86 -151 208 -239 446 -32 85 -61 159 -65 163 -21 23 -201 -486 -230 -650 -12
-69 -15 -73 -39 -73 -63 0 -186 101 -218 178 -30 72 -6 155 234 807 149 405
218 587 400 1045 69 173 189 489 208 548 12 36 114 -19 198 -106 46 -49 57
-67 57 -95 0 -19 -26 -92 -61 -173 -122 -281 -530 -1276 -525 -1281 1 -2 25
28 52 65 172 235 345 409 474 476 71 38 164 66 215 66 53 0 134 -29 171 -62
96 -85 105 -204 28 -363 -106 -218 -309 -354 -559 -373 l-85 -7 54 -133 c114
-279 203 -394 294 -377 58 11 178 141 309 335 123 183 195 259 314 333 76 47
174 87 214 87 42 0 185 -116 185 -150 0 -8 -27 -29 -63 -48 -178 -92 -322
-274 -373 -472 -25 -99 -17 -257 18 -332 78 -168 231 -245 504 -255 231 -9
414 30 607 129 199 102 343 234 435 398 82 147 95 314 34 443 -66 141 -201
247 -502 392 -284 137 -488 243 -554 288 -82 55 -191 160 -232 224 -123 190
-117 454 17 653 263 394 1078 660 1634 535z m-7765 -45 c240 -15 368 -39 555
-107 481 -173 747 -496 795 -967 20 -195 -22 -465 -107 -691 -43 -116 -141
-303 -218 -420 -373 -561 -946 -916 -1640 -1017 -135 -19 -476 -16 -600 6
-280 50 -467 137 -600 277 -41 44 -79 96 -96 133 -83 179 -47 382 91 509 83
78 154 109 256 115 72 4 89 1 138 -21 31 -14 56 -30 56 -36 0 -5 -15 -19 -33
-30 -46 -28 -128 -116 -159 -171 -70 -120 -88 -275 -47 -386 113 -303 694
-355 1256 -113 356 152 619 356 888 689 420 519 579 1204 375 1615 -78 157
-197 274 -355 350 -276 132 -588 150 -953 55 -559 -146 -1083 -581 -1211
-1005 -67 -223 -37 -394 90 -508 62 -57 68 -67 44 -87 -38 -32 -243 53 -339
141 -69 63 -109 123 -138 207 -33 95 -33 282 0 397 51 179 172 374 317 514
338 325 807 517 1345 551 63 4 117 8 120 8 3 1 79 -3 170 -8z m11088 -187 c91
-62 141 -140 142 -219 0 -109 -66 -363 -153 -584 -95 -242 -352 -746 -513
-1006 -72 -117 -131 -394 -102 -478 18 -53 36 -63 90 -47 64 19 191 154 307
325 80 118 98 152 116 220 65 243 194 458 355 593 84 70 224 145 315 168 266
67 495 -77 495 -310 0 -153 -102 -348 -242 -464 -155 -128 -420 -203 -568
-161 -46 13 -50 5 -50 -106 0 -165 50 -256 159 -288 68 -20 101 -20 176 -1
169 44 335 202 537 510 l81 124 28 -16 c16 -9 31 -24 34 -32 3 -8 -15 -51 -41
-95 -215 -374 -439 -588 -681 -651 -74 -19 -223 -19 -298 0 -181 47 -318 194
-332 356 -3 32 -9 59 -12 58 -3 0 -33 -39 -66 -87 -88 -127 -224 -261 -307
-302 -213 -104 -419 46 -406 295 1 36 1 65 -2 65 -3 0 -14 -15 -25 -32 -30
-51 -223 -240 -295 -289 -36 -24 -103 -64 -149 -89 l-83 -45 -47 -115 c-160
-386 -312 -604 -489 -698 -212 -113 -478 -59 -558 112 -55 119 -20 252 95 358
96 90 210 149 540 283 97 40 145 65 149 77 4 17 38 100 146 357 31 73 56 138
56 144 0 6 -25 -30 -56 -79 -73 -118 -197 -269 -259 -316 -153 -117 -341 -74
-427 96 -29 57 -30 64 -26 159 4 93 3 98 -12 76 -50 -78 -166 -222 -218 -272
-118 -112 -253 -147 -371 -96 -57 24 -124 91 -149 147 -23 53 -20 177 8 287
47 187 172 521 368 985 38 91 66 166 61 168 -4 2 -66 -4 -136 -12 -71 -9 -153
-16 -182 -16 -50 0 -57 3 -92 39 -37 40 -79 132 -79 175 l0 24 63 -14 c41 -9
138 -13 289 -14 l226 0 84 211 c46 116 89 214 97 217 39 15 221 -121 248 -186
13 -32 12 -37 -27 -121 -22 -48 -40 -90 -40 -93 0 -2 128 -3 285 0 l285 5 39
-26 c49 -33 93 -118 99 -193 5 -66 2 -66 -93 -19 -123 61 -286 82 -537 70
l-156 -7 -150 -352 c-290 -678 -396 -978 -377 -1065 15 -69 80 -78 157 -22
130 96 397 472 504 711 57 129 169 417 205 528 13 41 29 72 36 72 50 0 232
-140 248 -190 4 -11 -27 -93 -78 -212 -127 -289 -190 -446 -248 -618 -61 -182
-73 -270 -42 -309 17 -21 25 -23 59 -17 31 6 55 23 119 89 129 131 207 244
401 582 56 97 249 553 269 638 5 20 13 27 31 27 59 0 192 -95 228 -162 l19
-34 -78 -185 c-42 -101 -146 -355 -230 -564 -84 -209 -160 -397 -169 -417 -9
-21 -12 -38 -8 -38 20 0 157 106 243 187 94 90 253 292 294 373 12 25 32 77
45 115 13 39 49 138 80 220 32 83 95 247 140 365 46 118 113 287 150 375 37
88 127 302 200 475 73 173 137 323 142 333 13 25 48 16 116 -30z m-11201 -325
c80 -34 233 -153 233 -181 0 -5 -20 -34 -43 -65 -63 -82 -201 -313 -294 -492
-240 -460 -474 -1118 -499 -1402 -11 -127 -11 -128 -44 -118 -96 28 -219 128
-259 213 -32 66 -25 131 34 320 161 521 538 1360 748 1665 53 77 68 84 124 60z
m2424 -717 c62 -24 139 -92 159 -141 7 -16 16 -30 20 -30 5 0 21 39 37 88 20
58 35 88 47 90 46 9 208 -116 222 -172 4 -16 -11 -61 -46 -142 -28 -66 -55
-129 -60 -141 -5 -13 -18 -23 -27 -23 -10 1 -72 29 -138 63 l-120 62 -6 50
c-12 100 -65 161 -133 152 -222 -30 -636 -730 -636 -1076 0 -127 93 -149 209
-49 105 90 334 419 464 666 57 107 74 132 91 132 36 0 124 -49 177 -99 l50
-46 -77 -185 c-134 -328 -160 -436 -115 -491 17 -22 21 -22 62 -10 82 25 212
176 432 506 74 111 173 342 278 650 66 192 69 196 149 155 101 -51 168 -147
155 -219 -7 -37 -63 -176 -161 -400 -30 -68 -53 -125 -51 -128 2 -2 26 34 52
79 110 192 294 422 434 545 43 37 108 81 151 102 68 33 83 36 161 36 78 0 90
-3 134 -30 75 -47 76 -51 13 -141 -112 -160 -195 -343 -219 -479 -16 -92 -6
-143 37 -194 42 -48 33 -57 -47 -48 -117 14 -227 93 -264 190 -34 91 -9 241
65 390 17 33 28 62 26 64 -7 8 -122 -94 -172 -153 -239 -280 -493 -728 -570
-1007 -14 -51 -27 -98 -29 -104 -6 -19 -34 -16 -90 11 -64 30 -106 65 -144
123 -37 55 -40 99 -12 178 11 30 18 55 16 55 -2 0 -32 -37 -68 -82 -89 -114
-215 -234 -273 -260 -68 -31 -182 -31 -239 -1 -50 26 -87 65 -116 122 -29 57
-34 121 -16 201 9 36 14 66 13 67 -1 2 -25 -30 -52 -69 -63 -93 -174 -223
-227 -267 -96 -77 -197 -104 -292 -76 -78 22 -134 62 -178 127 -53 78 -69 129
-74 249 -11 229 67 473 231 718 133 200 287 332 461 393 70 25 91 28 165 25
55 -3 105 -12 141 -26z m12185 -9332 c146 -27 256 -136 283 -282 34 -183 -94
-362 -283 -396 -77 -14 -295 -14 -371 0 -147 27 -257 136 -284 282 -32 177 89
355 269 393 70 16 308 17 386 3z"/>
<path d="M9710 10598 c-71 -151 -168 -393 -225 -558 -46 -136 -105 -348 -105
-379 1 -20 87 207 192 504 44 127 107 300 139 385 32 85 57 156 55 157 -2 2
-27 -47 -56 -109z"/>
<path d="M10201 10515 c-59 -26 -153 -101 -248 -197 -119 -122 -287 -332 -268
-336 30 -7 202 30 266 57 190 80 349 266 349 408 0 79 -28 98 -99 68z"/>
<path d="M9540 10394 c-93 -211 -158 -397 -186 -528 -15 -73 -13 -96 4 -49 93
256 232 659 229 666 -2 6 -23 -35 -47 -89z"/>
<path d="M16067 11173 c-107 -222 -222 -481 -299 -672 -80 -201 -149 -392
-145 -404 4 -12 95 154 232 424 149 295 232 501 285 707 18 67 30 127 28 133
-2 6 -47 -79 -101 -188z"/>
<path d="M15867 10937 c-69 -106 -258 -583 -257 -648 1 -8 36 74 79 181 43
107 106 261 139 343 34 81 59 147 58 147 -2 0 -10 -10 -19 -23z"/>
<path d="M13682 10757 c-69 -121 -227 -463 -287 -621 -52 -139 -125 -372 -125
-399 0 -7 36 76 79 183 43 107 147 354 230 549 84 194 150 355 148 357 -2 2
-22 -29 -45 -69z"/>
<path d="M13510 10599 c-86 -139 -233 -503 -254 -629 -8 -45 -7 -44 95 205 45
110 106 256 135 324 54 124 63 163 24 100z"/>
<path d="M16825 10541 c-110 -63 -249 -240 -350 -446 -55 -112 -105 -259 -92
-271 13 -13 131 15 197 48 82 40 228 184 283 278 76 131 121 285 103 354 -9
35 -41 66 -68 66 -13 0 -46 -13 -73 -29z"/>
<path d="M16506 10314 c-80 -103 -178 -314 -200 -431 -10 -60 10 -34 33 41 26
83 120 285 173 367 48 76 50 79 44 79 -3 0 -26 -25 -50 -56z"/>
<path d="M14866 9969 c-146 -311 -373 -905 -353 -925 6 -6 138 307 232 551 42
110 101 263 131 339 30 76 52 141 49 144 -3 3 -29 -46 -59 -109z"/>
<path d="M14737 9878 c-33 -58 -106 -227 -160 -373 -52 -140 -117 -339 -117
-357 0 -17 43 75 85 182 135 345 227 590 220 590 -2 0 -14 -19 -28 -42z"/>
<path d="M14140 8912 c-289 -130 -417 -236 -450 -372 -22 -92 15 -150 100
-158 135 -13 284 142 411 430 58 129 65 148 53 148 -5 0 -56 -22 -114 -48z"/>
<path d="M4643 10483 c-45 -64 -147 -258 -192 -364 -95 -225 -171 -487 -170
-584 0 -36 2 -32 24 40 69 234 210 604 306 804 59 123 69 158 32 104z"/>
<path d="M4452 10298 c-112 -164 -224 -473 -221 -612 1 -47 -1 -50 44 99 32
107 99 287 150 405 63 144 65 150 61 150 -3 0 -18 -19 -34 -42z"/>
<path d="M7044 10421 c-79 -62 -183 -189 -258 -313 -76 -126 -126 -262 -140
-383 -5 -45 -2 -40 28 46 75 214 241 490 390 647 50 52 43 54 -20 3z"/>
<path d="M6823 10295 c-75 -59 -169 -213 -197 -322 -28 -109 -20 -127 18 -38
47 114 81 178 145 275 72 109 73 110 69 110 -2 0 -17 -11 -35 -25z"/>
<path d="M8355 10226 c-103 -190 -230 -528 -269 -720 -20 -94 -15 -111 9 -29
9 32 45 132 80 223 35 91 84 223 110 293 25 70 64 169 85 219 22 50 38 93 36
95 -2 3 -25 -34 -51 -81z"/>
<path d="M8216 10108 c-69 -124 -140 -310 -171 -450 -31 -140 -9 -106 55 86
34 104 84 242 111 307 26 66 46 119 44 119 -2 0 -20 -28 -39 -62z"/>
<path d="M19462 1178 c-30 -30 -3 -82 40 -76 29 4 47 50 28 72 -15 19 -51 21
-68 4z"/>
<path d="M19225 1076 c-48 -21 -59 -40 -35 -61 18 -17 21 -17 56 0 28 13 42
15 60 6 42 -19 30 -39 -19 -34 -105 12 -165 -80 -97 -149 28 -27 35 -29 78
-24 26 3 68 5 95 5 l47 0 -1 83 c0 108 -14 148 -59 170 -41 21 -83 22 -125 4z
m100 -157 c10 -16 -25 -49 -52 -49 -25 0 -39 21 -29 45 6 17 71 21 81 4z"/>
<path d="M19460 950 l0 -130 35 0 35 0 0 130 0 130 -35 0 -35 0 0 -130z"/>
</g>
</svg>
